<svg width="32" height="32" viewBox="0 0 32 32" fill="none" xmlns="http://www.w3.org/2000/svg">
<rect width="32" height="32" rx="6" fill="#0D1219"/>
<path d="M13.917 19.0312C14.4056 19.0314 14.8047 19.4195 14.8047 19.9023V27.2295C14.8047 27.7123 14.4056 28.1004 13.917 28.1006C13.4283 28.1006 13.0283 27.7125 13.0283 27.2295V19.9023C13.0283 19.4193 13.4283 19.0312 13.917 19.0312ZM9.58887 11.7256C10.0773 11.7257 10.4765 12.1128 10.4766 12.5957V22.5322C10.4766 23.0152 10.0773 23.4022 9.58887 23.4023C9.10038 23.4023 8.7002 23.0154 8.7002 22.5322V12.5957L8.7041 12.5059C8.75015 12.0654 9.13108 11.7256 9.58887 11.7256ZM18.5918 12.251C19.0383 12.2956 19.3896 12.6654 19.3896 13.1182V21.4893C19.3895 21.9419 19.0381 22.311 18.5918 22.3555L18.501 22.3594C18.0125 22.3593 17.6135 21.972 17.6133 21.4893V13.1182C17.6133 12.6353 18.0123 12.2472 18.501 12.2471L18.5918 12.251ZM23.2109 3.90039C23.6992 3.90065 24.0984 4.28777 24.0986 4.77051V16.2725C24.0986 16.7554 23.6993 17.1423 23.2109 17.1426C22.7225 17.1426 22.3223 16.7557 22.3223 16.2725V4.77051L22.3262 4.68066C22.3723 4.24031 22.7532 3.90039 23.2109 3.90039Z" fill="#20C099" stroke="#20C099" stroke-width="0.2"/>
</svg>
